<?xml version="1.0" encoding="UTF-8"?>
<svg  xmlns="http://www.w3.org/2000/svg" width="320" height="130" viewBox="0 0 320 130" fill="white">
  <g id="starlink">
    <g id="letters">
      <path id="letter-s" d="M10.0029 71.7839H16.3092C16.5344 73.8109 17.2101 75.1623 18.111 75.838C19.0119 76.7388 20.5884 76.9641 22.6154 76.9641C26.4442 76.9641 28.246 75.3875 28.246 72.4596C28.246 71.1083 27.7956 69.9822 27.1199 69.3065C26.4442 68.6308 25.0929 68.1804 23.5163 67.7299L20.138 67.2795C13.8317 66.1534 10.6786 63.0002 10.6786 57.5949C10.6786 54.4418 11.8047 51.7391 13.8317 49.9373C16.0839 48.1355 18.7866 47.0094 22.3902 47.0094C25.7685 47.0094 28.4712 47.9103 30.4982 49.7121C32.5252 51.5139 33.6514 54.2166 33.8766 57.3697H27.5703C27.5703 55.5679 26.8947 54.4418 25.9938 53.7661C25.0929 53.0904 23.7415 52.64 22.165 52.64C20.3632 52.64 19.2371 53.0904 18.3362 53.7661C17.4353 54.4418 16.9849 55.5679 16.9849 57.1444C16.9849 58.2706 17.4353 59.3967 18.111 60.0723C18.7866 60.748 20.138 61.1985 21.7145 61.6489L25.3181 62.3246C31.3991 63.4507 34.327 66.6038 34.327 72.2344C34.327 75.8379 33.2009 78.5406 30.9487 80.3424C28.6964 82.1442 25.7685 83.0451 21.9398 83.0451C18.111 83.0451 15.183 82.1442 13.156 80.3424C11.3543 78.0902 10.2282 75.3875 10.0029 71.7839Z" fill="white"></path>
      <path id="letter-t" d="M65.1825 53.3157V82.5946H58.4258V53.3157H49.4169V47.4598H73.9662V53.3157H65.1825Z" fill="white"></path>
      <path id="letter-a" d="M93.1101 75.6127L91.0831 82.3694H84.1012L96.4885 47.4598H101.894L114.281 82.3694H107.299L105.272 75.6127H93.1101ZM99.1912 56.694L94.9119 70.2074H103.47L99.1912 56.694Z" fill="white"></path>
      <path id="letter-r" d="M136.803 68.4056V82.5946H130.272V47.6851H143.56C146.938 47.6851 149.641 48.5859 151.668 50.3877C153.695 52.1895 154.821 54.8922 154.821 58.0453C154.821 60.2976 154.371 62.3245 153.245 63.9011C152.119 65.4777 150.542 66.6038 148.74 67.5047L156.398 82.8199H148.74L142.209 68.6308H136.803V68.4056ZM143.11 62.775C144.686 62.775 145.812 62.3246 146.713 61.4237C147.614 60.5228 148.065 59.3967 148.065 57.8201C148.065 56.4688 147.614 55.3426 146.713 54.4417C145.812 53.5409 144.686 53.0904 143.11 53.0904H136.803V62.775H143.11Z" fill="white"></path>
      <path id="letter-l" d="M179.371 47.4598V76.7388H194.686V82.5946H172.839V47.6851H179.371V47.4598Z" fill="white"></path>
      <path id="letter-i" d="M218.559 47.4598V82.5946H212.028V47.6851H218.559V47.4598Z" fill="white"></path>
      <path id="letter-n" d="M263.829 82.5946H257.298L244.46 60.748V82.5946H237.478V47.6851H244.01L256.847 69.5317V47.6851H263.379V82.5946H263.829Z" fill="white"></path>
      <path id="letter-k" d="M289.054 72.6848V82.3694H282.523V47.4598H289.054V63.6759L301.216 47.4598H309.099L297.838 61.4237L310 82.3694H302.342L293.784 66.829L289.054 72.6848Z" fill="white"></path>
    </g>
  </g>
</svg>
